<mxfile host="65bd71144e">
    <diagram id="lFyRF57WMhDG5nA4d3cN" name="PÃ¡gina-1">
        <mxGraphModel dx="6185" dy="4561" grid="1" gridSize="10" guides="1" tooltips="1" connect="1" arrows="1" fold="1" page="1" pageScale="1" pageWidth="827" pageHeight="1169" math="0" shadow="0">
            <root>
                <mxCell id="0"/>
                <mxCell id="1" parent="0"/>
                <mxCell id="5" value="&lt;font style=&quot;font-size: 40px;&quot;&gt;&lt;b&gt;DIAGRAMA MODELO DE CASO DE USO DE NEGOCIO&lt;/b&gt;&lt;/font&gt;" style="text;html=1;strokeColor=#009999;fillColor=#009999;align=center;verticalAlign=middle;whiteSpace=wrap;rounded=0;shadow=1;glass=0;labelBackgroundColor=none;labelBorderColor=none;sketch=0;fillStyle=auto;strokeWidth=11;fontSize=41;fontColor=#ffffff;" vertex="1" parent="1">
                    <mxGeometry x="-3080" y="-1580" width="1920" height="130" as="geometry"/>
                </mxCell>
                <mxCell id="14" value="" style="edgeStyle=none;html=1;fontSize=40;" edge="1" parent="1" source="8" target="13">
                    <mxGeometry relative="1" as="geometry"/>
                </mxCell>
                <mxCell id="17" style="edgeStyle=none;html=1;fontSize=40;" edge="1" parent="1" source="8" target="15">
                    <mxGeometry relative="1" as="geometry"/>
                </mxCell>
                <mxCell id="18" style="edgeStyle=none;html=1;fontSize=40;" edge="1" parent="1" source="8" target="16">
                    <mxGeometry relative="1" as="geometry"/>
                </mxCell>
                <mxCell id="20" style="edgeStyle=none;html=1;entryX=0.037;entryY=0.237;entryDx=0;entryDy=0;entryPerimeter=0;fontSize=40;" edge="1" parent="1" source="8" target="19">
                    <mxGeometry relative="1" as="geometry"/>
                </mxCell>
                <mxCell id="24" style="edgeStyle=none;html=1;fontSize=40;" edge="1" parent="1" source="8" target="21">
                    <mxGeometry relative="1" as="geometry"/>
                </mxCell>
                <mxCell id="8" value="Facturador" style="shape=umlActor;verticalLabelPosition=bottom;verticalAlign=top;html=1;fontSize=40;strokeWidth=6;" vertex="1" parent="1">
                    <mxGeometry x="-2510" y="-1080" width="200" height="290" as="geometry"/>
                </mxCell>
                <mxCell id="13" value="&lt;br&gt;Mantener Cliente" style="ellipse;whiteSpace=wrap;html=1;fontSize=40;verticalAlign=top;fillColor=rgb(24, 20, 29);strokeWidth=6;" vertex="1" parent="1">
                    <mxGeometry x="-2110" y="-720" width="410" height="160" as="geometry"/>
                </mxCell>
                <mxCell id="15" value="&lt;br&gt;Mantener Facturador" style="ellipse;whiteSpace=wrap;html=1;fontSize=40;verticalAlign=top;fillColor=rgb(24, 20, 29);strokeWidth=6;" vertex="1" parent="1">
                    <mxGeometry x="-2140" y="-1340" width="410" height="160" as="geometry"/>
                </mxCell>
                <mxCell id="16" value="&lt;br&gt;Mantener Producto" style="ellipse;whiteSpace=wrap;html=1;fontSize=40;verticalAlign=top;fillColor=rgb(24, 20, 29);strokeWidth=6;" vertex="1" parent="1">
                    <mxGeometry x="-2120" y="-1130" width="410" height="160" as="geometry"/>
                </mxCell>
                <mxCell id="19" value="&lt;br&gt;Mantener Servicio" style="ellipse;whiteSpace=wrap;html=1;fontSize=40;verticalAlign=top;fillColor=rgb(24, 20, 29);strokeWidth=6;" vertex="1" parent="1">
                    <mxGeometry x="-2067" y="-940" width="410" height="160" as="geometry"/>
                </mxCell>
                <mxCell id="23" value="&amp;lt;Extends&amp;gt;" style="edgeStyle=none;html=1;fontSize=40;entryX=0.5;entryY=0;entryDx=0;entryDy=0;exitX=0.5;exitY=1;exitDx=0;exitDy=0;" edge="1" parent="1">
                    <mxGeometry relative="1" as="geometry">
                        <mxPoint x="-2109" y="-320" as="sourcePoint"/>
                        <mxPoint x="-2079" y="-140" as="targetPoint"/>
                        <Array as="points">
                            <mxPoint x="-2090" y="-230"/>
                        </Array>
                    </mxGeometry>
                </mxCell>
                <mxCell id="21" value="&lt;br&gt;Registrar Factura" style="ellipse;whiteSpace=wrap;html=1;fontSize=40;verticalAlign=top;fillColor=rgb(24, 20, 29);strokeWidth=6;" vertex="1" parent="1">
                    <mxGeometry x="-2320" y="-480" width="440" height="160" as="geometry"/>
                </mxCell>
                <mxCell id="22" value="&lt;br&gt;Exportar Factura" style="ellipse;whiteSpace=wrap;html=1;fontSize=40;verticalAlign=top;fillColor=rgb(24, 20, 29);strokeWidth=6;" vertex="1" parent="1">
                    <mxGeometry x="-2300" y="-140" width="440" height="160" as="geometry"/>
                </mxCell>
            </root>
        </mxGraphModel>
    </diagram>
</mxfile>